<svg xmlns="http://www.w3.org/2000/svg" width="24.527" height="23.75" viewBox="0 0 24.527 23.75"><defs><style>.a{fill:#f7a739;}</style></defs><path class="a" d="M27.216,17.875A11.761,11.761,0,0,1,15.608,29.75,11.761,11.761,0,0,1,4,17.875,11.761,11.761,0,0,1,15.608,6a11.455,11.455,0,0,1,6.7,2.162.547.547,0,0,1,.133.747.519.519,0,0,1-.747.107,10.58,10.58,0,0,0-6.084-1.948A10.691,10.691,0,0,0,5.067,17.875,10.691,10.691,0,0,0,15.608,28.683,10.691,10.691,0,0,0,26.149,17.875a.534.534,0,1,1,1.067,0Zm1.147-9.126a.516.516,0,0,0-.747,0L16.275,20.383l-4.83-4.963a.528.528,0,0,0-.747.747L15.9,21.5a.527.527,0,0,0,.374.16.485.485,0,0,0,.374-.16L28.39,9.522A.575.575,0,0,0,28.364,8.749Z" transform="translate(-4 -6)"/></svg>