<svg xmlns="http://www.w3.org/2000/svg" width="27.164" height="27.164" viewBox="0 0 27.164 27.164"><defs><style>.a{opacity:0.8;}</style></defs><g class="a"><path d="M200.562,196.061l-4.59-4.59,2.251-2.251a.8.8,0,0,0-.311-1.318l-13.505-4.5a.8.8,0,0,0-1.007,1.007l4.5,13.506a.8.8,0,0,0,1.318.311l2.251-2.251,4.59,4.59a.8.8,0,0,0,1.125,0l3.376-3.376A.8.8,0,0,0,200.562,196.061Zm-3.939,2.814-4.59-4.59a.8.8,0,0,0-1.125,0l-1.9,1.9-3.591-10.774,10.774,3.591-1.9,1.9a.8.8,0,0,0,0,1.125l4.59,4.59Z" transform="translate(-173.632 -173.632)"/><path d="M180.8,6.367a.8.8,0,0,0,.8-.8V.8A.8.8,0,0,0,180,.8V5.571A.8.8,0,0,0,180.8,6.367Z" transform="translate(-170.45)"/><path d="M54.079,52.954a.8.8,0,1,0-1.125,1.125l3.376,3.376a.8.8,0,0,0,1.125-1.125Z" transform="translate(-49.923 -49.923)"/><path d="M56.33,243.873l-3.376,3.376a.8.8,0,0,0,1.125,1.125L57.455,245a.8.8,0,0,0-1.125-1.125Z" transform="translate(-49.923 -230.713)"/><path d="M245,57.455l3.376-3.376a.8.8,0,1,0-1.125-1.125l-3.376,3.376A.8.8,0,1,0,245,57.455Z" transform="translate(-230.713 -49.923)"/><path d="M6.367,180.8a.8.8,0,0,0-.8-.8H.8a.8.8,0,0,0,0,1.592H5.571A.8.8,0,0,0,6.367,180.8Z" transform="translate(0 -170.45)"/></g></svg>