<svg xmlns="http://www.w3.org/2000/svg" width="60.344" height="60.345" viewBox="0 0 60.344 60.345"><defs><style>.a{opacity:0.456;}.b{fill:#fff;}</style></defs><g class="a"><path class="b" d="M291.612,508.668q-.377.061-.757.113Q291.235,508.729,291.612,508.668Zm0,0" transform="translate(-256.575 -448.716)"/><path class="b" d="M299.7,507.793c-.12.022-.24.042-.36.063C299.46,507.835,299.58,507.815,299.7,507.793Zm0,0" transform="translate(-264.06 -447.945)"/><path class="b" d="M278.5,510.34q-.441.05-.887.087Q278.055,510.39,278.5,510.34Zm0,0" transform="translate(-244.89 -450.191)"/><path class="b" d="M286.871,509.738c-.141.019-.284.036-.425.053C286.587,509.775,286.729,509.757,286.871,509.738Zm0,0" transform="translate(-252.685 -449.661)"/><path class="b" d="M306.983,506.41l-.319.067Zm0,0" transform="translate(-270.521 -446.725)"/><path class="b" d="M324.741,502.113l-.257.071Zm0,0" transform="translate(-286.241 -442.934)"/><path class="b" d="M319.339,503.543l-.28.073Zm0,0" transform="translate(-281.454 -444.195)"/><path class="b" d="M312.364,505.254l-.3.067Zm0,0" transform="translate(-275.286 -445.705)"/><path class="b" d="M273.957,511.09q-.238.02-.477.036Q273.719,511.11,273.957,511.09Zm0,0" transform="translate(-241.248 -450.853)"/><path class="b" d="M60.344,30.172A30.172,30.172,0,1,0,30.172,60.344c.177,0,.354,0,.53-.007V36.85H24.22V29.3H30.7V23.736c0-6.447,3.936-9.956,9.687-9.956a53.361,53.361,0,0,1,5.812.3v6.738H42.235c-3.129,0-3.735,1.487-3.735,3.669V29.3h7.481l-.975,7.555H38.5V59.179A30.188,30.188,0,0,0,60.344,30.172Zm0,0"/><path class="b" d="M265.836,511.43q-.471.03-.946.047Q265.365,511.461,265.836,511.43Zm0,0" transform="translate(-233.671 -451.153)"/><path class="b" d="M261,511.836q-.25.008-.5.012Q260.755,511.844,261,511.836Zm0,0" transform="translate(-229.801 -451.511)"/></g></svg>