<svg xmlns="http://www.w3.org/2000/svg" width="1889" height="450" viewBox="0 0 1889 450"><defs><style>.a{fill:#363a6a;}.b{fill:#fff;opacity:0.179;}</style></defs><g transform="translate(-16 -1085)"><rect class="a" width="1889" height="450" rx="30" transform="translate(16 1085)"/><g transform="translate(14 -1914.965)"><circle class="b" cx="6.5" cy="6.5" r="6.5" transform="translate(15 3023.965)"/><circle class="b" cx="6.5" cy="6.5" r="6.5" transform="translate(48 3023.965)"/><circle class="b" cx="6.5" cy="6.5" r="6.5" transform="translate(81 3023.965)"/><circle class="b" cx="6.5" cy="6.5" r="6.5" transform="translate(114 3023.965)"/><circle class="b" cx="6.5" cy="6.5" r="6.5" transform="translate(147 3023.965)"/><circle class="b" cx="6.5" cy="6.5" r="6.5" transform="translate(180 3023.965)"/><circle class="b" cx="6.5" cy="6.5" r="6.5" transform="translate(213 3023.965)"/><circle class="b" cx="6.5" cy="6.5" r="6.5" transform="translate(246 3023.965)"/><circle class="b" cx="6.5" cy="6.5" r="6.5" transform="translate(15 3056.965)"/><circle class="b" cx="6.5" cy="6.5" r="6.5" transform="translate(48 3056.965)"/><circle class="b" cx="6.5" cy="6.5" r="6.5" transform="translate(81 3056.965)"/><circle class="b" cx="6.5" cy="6.5" r="6.5" transform="translate(114 3056.965)"/><circle class="b" cx="6.5" cy="6.5" r="6.5" transform="translate(147 3056.965)"/><circle class="b" cx="6.5" cy="6.5" r="6.5" transform="translate(180 3056.965)"/><circle class="b" cx="6.5" cy="6.5" r="6.5" transform="translate(213 3056.965)"/><circle class="b" cx="6.5" cy="6.5" r="6.5" transform="translate(15 3089.965)"/><circle class="b" cx="6.5" cy="6.5" r="6.5" transform="translate(48 3089.965)"/><circle class="b" cx="6.5" cy="6.5" r="6.5" transform="translate(81 3089.965)"/><circle class="b" cx="6.5" cy="6.5" r="6.5" transform="translate(114 3089.965)"/><circle class="b" cx="6.5" cy="6.5" r="6.5" transform="translate(147 3089.965)"/><circle class="b" cx="6.5" cy="6.5" r="6.5" transform="translate(180 3089.965)"/><circle class="b" cx="6.5" cy="6.5" r="6.5" transform="translate(15 3122.965)"/><circle class="b" cx="6.5" cy="6.5" r="6.5" transform="translate(48 3122.965)"/><circle class="b" cx="6.5" cy="6.5" r="6.5" transform="translate(81 3122.965)"/><circle class="b" cx="6.5" cy="6.5" r="6.5" transform="translate(114 3122.965)"/><circle class="b" cx="6.5" cy="6.5" r="6.5" transform="translate(147 3122.965)"/><circle class="b" cx="6.5" cy="6.5" r="6.5" transform="translate(15 3155.965)"/><circle class="b" cx="6.5" cy="6.5" r="6.5" transform="translate(48 3155.965)"/><circle class="b" cx="6.5" cy="6.5" r="6.5" transform="translate(81 3155.965)"/><circle class="b" cx="6.5" cy="6.5" r="6.5" transform="translate(114 3155.965)"/><circle class="b" cx="6.5" cy="6.5" r="6.5" transform="translate(180 3155.965)"/><circle class="b" cx="6.5" cy="6.5" r="6.5" transform="translate(15 3188.965)"/><circle class="b" cx="6.5" cy="6.5" r="6.5" transform="translate(48 3188.965)"/><circle class="b" cx="6.5" cy="6.5" r="6.5" transform="translate(81 3188.965)"/><circle class="b" cx="6.5" cy="6.5" r="6.5" transform="translate(15 3221.965)"/><circle class="b" cx="6.5" cy="6.5" r="6.5" transform="translate(48 3221.965)"/><circle class="b" cx="6.5" cy="6.5" r="6.5" transform="translate(180 3221.965)"/><circle class="b" cx="6.5" cy="6.5" r="6.5" transform="translate(15 3254.965)"/><circle class="b" cx="6.5" cy="6.5" r="6.5" transform="translate(48 3254.965)"/><circle class="b" cx="6.5" cy="6.5" r="6.5" transform="translate(114 3254.965)"/><circle class="b" cx="6.5" cy="6.5" r="6.5" transform="translate(147 3254.965)"/><circle class="b" cx="6.5" cy="6.5" r="6.5" transform="translate(15 3287.965)"/><circle class="b" cx="6.5" cy="6.5" r="6.5" transform="translate(114 3287.965)"/><circle class="b" cx="6.5" cy="6.5" r="6.5" transform="translate(213 3287.965)"/></g><g transform="translate(1646 1159)"><circle class="b" cx="6.5" cy="6.5" r="6.5" transform="translate(231 264)"/><circle class="b" cx="6.5" cy="6.5" r="6.5" transform="translate(198 264)"/><circle class="b" cx="6.5" cy="6.5" r="6.5" transform="translate(165 264)"/><circle class="b" cx="6.5" cy="6.5" r="6.5" transform="translate(132 264)"/><circle class="b" cx="6.5" cy="6.5" r="6.5" transform="translate(99 264)"/><circle class="b" cx="6.5" cy="6.5" r="6.5" transform="translate(66 264)"/><circle class="b" cx="6.5" cy="6.5" r="6.5" transform="translate(33 264)"/><circle class="b" cx="6.5" cy="6.5" r="6.5" transform="translate(0 264)"/><circle class="b" cx="6.5" cy="6.5" r="6.5" transform="translate(231 231)"/><circle class="b" cx="6.5" cy="6.5" r="6.5" transform="translate(198 231)"/><circle class="b" cx="6.5" cy="6.5" r="6.5" transform="translate(165 231)"/><circle class="b" cx="6.5" cy="6.5" r="6.5" transform="translate(132 231)"/><circle class="b" cx="6.5" cy="6.5" r="6.5" transform="translate(99 231)"/><circle class="b" cx="6.5" cy="6.5" r="6.5" transform="translate(66 231)"/><circle class="b" cx="6.5" cy="6.5" r="6.5" transform="translate(33 231)"/><circle class="b" cx="6.5" cy="6.5" r="6.5" transform="translate(231 198)"/><circle class="b" cx="6.5" cy="6.5" r="6.5" transform="translate(198 198)"/><circle class="b" cx="6.5" cy="6.5" r="6.5" transform="translate(165 198)"/><circle class="b" cx="6.5" cy="6.5" r="6.5" transform="translate(132 198)"/><circle class="b" cx="6.5" cy="6.5" r="6.5" transform="translate(99 198)"/><circle class="b" cx="6.5" cy="6.5" r="6.5" transform="translate(66 198)"/><circle class="b" cx="6.5" cy="6.5" r="6.5" transform="translate(231 165)"/><circle class="b" cx="6.5" cy="6.5" r="6.5" transform="translate(198 165)"/><circle class="b" cx="6.5" cy="6.5" r="6.5" transform="translate(165 165)"/><circle class="b" cx="6.5" cy="6.5" r="6.5" transform="translate(132 165)"/><circle class="b" cx="6.5" cy="6.5" r="6.5" transform="translate(99 165)"/><circle class="b" cx="6.5" cy="6.5" r="6.5" transform="translate(231 132)"/><circle class="b" cx="6.5" cy="6.5" r="6.5" transform="translate(198 132)"/><circle class="b" cx="6.5" cy="6.5" r="6.5" transform="translate(165 132)"/><circle class="b" cx="6.5" cy="6.5" r="6.5" transform="translate(132 132)"/><circle class="b" cx="6.5" cy="6.5" r="6.5" transform="translate(66 132)"/><circle class="b" cx="6.5" cy="6.5" r="6.5" transform="translate(231 99)"/><circle class="b" cx="6.5" cy="6.5" r="6.5" transform="translate(198 99)"/><circle class="b" cx="6.5" cy="6.5" r="6.5" transform="translate(165 99)"/><circle class="b" cx="6.5" cy="6.5" r="6.5" transform="translate(231 66)"/><circle class="b" cx="6.5" cy="6.5" r="6.5" transform="translate(198 66)"/><circle class="b" cx="6.5" cy="6.5" r="6.5" transform="translate(66 66)"/><circle class="b" cx="6.5" cy="6.5" r="6.5" transform="translate(231 33)"/><circle class="b" cx="6.5" cy="6.5" r="6.5" transform="translate(198 33)"/><circle class="b" cx="6.5" cy="6.5" r="6.5" transform="translate(132 33)"/><circle class="b" cx="6.5" cy="6.5" r="6.5" transform="translate(99 33)"/><circle class="b" cx="6.5" cy="6.5" r="6.5" transform="translate(231)"/><circle class="b" cx="6.5" cy="6.5" r="6.5" transform="translate(132)"/><circle class="b" cx="6.5" cy="6.5" r="6.5" transform="translate(33)"/></g></g></svg>