<svg xmlns="http://www.w3.org/2000/svg" width="60.646" height="60.646" viewBox="0 0 60.646 60.646"><defs><style>.a{opacity:0.46;}.b{fill:#fff;}</style></defs><g class="a"><path class="b" d="M218.608,212.8a5.8,5.8,0,1,1-5.8-5.8A5.8,5.8,0,0,1,218.608,212.8Zm0,0" transform="translate(-182.481 -182.481)"/><path class="b" d="M163.333,139.494a5.766,5.766,0,0,0-3.3-3.3,9.634,9.634,0,0,0-3.233-.6c-1.836-.084-2.387-.1-7.036-.1s-5.2.018-7.036.1a9.64,9.64,0,0,0-3.233.6,5.769,5.769,0,0,0-3.305,3.3,9.637,9.637,0,0,0-.6,3.233c-.084,1.836-.1,2.387-.1,7.036s.018,5.2.1,7.036a9.633,9.633,0,0,0,.6,3.233,5.766,5.766,0,0,0,3.3,3.3,9.622,9.622,0,0,0,3.233.6c1.836.084,2.386.1,7.036.1s5.2-.018,7.036-.1a9.622,9.622,0,0,0,3.233-.6,5.766,5.766,0,0,0,3.3-3.3,9.642,9.642,0,0,0,.6-3.233c.084-1.836.1-2.387.1-7.036s-.018-5.2-.1-7.036A9.621,9.621,0,0,0,163.333,139.494ZM149.759,158.7a8.941,8.941,0,1,1,8.941-8.941A8.941,8.941,0,0,1,149.759,158.7Zm9.295-16.146a2.09,2.09,0,1,1,2.09-2.09A2.09,2.09,0,0,1,159.054,142.558Zm0,0" transform="translate(-119.436 -119.44)"/><path class="b" d="M30.323,0A30.323,30.323,0,1,0,60.646,30.323,30.326,30.326,0,0,0,30.323,0ZM47.63,37.5a12.775,12.775,0,0,1-.809,4.227,8.9,8.9,0,0,1-5.092,5.092,12.784,12.784,0,0,1-4.226.809c-1.857.085-2.45.105-7.179.105s-5.322-.02-7.179-.105a12.784,12.784,0,0,1-4.226-.809,8.9,8.9,0,0,1-5.092-5.092,12.772,12.772,0,0,1-.809-4.226c-.086-1.857-.105-2.45-.105-7.179s.02-5.322.105-7.179a12.776,12.776,0,0,1,.809-4.227,8.909,8.909,0,0,1,5.093-5.092,12.787,12.787,0,0,1,4.227-.809c1.857-.085,2.45-.105,7.179-.105s5.322.02,7.179.105a12.789,12.789,0,0,1,4.227.808,8.906,8.906,0,0,1,5.092,5.093,12.773,12.773,0,0,1,.81,4.227c.085,1.857.1,2.45.1,7.179S47.715,35.645,47.63,37.5Zm0,0" transform="translate(0 0)"/></g></svg>