<svg xmlns="http://www.w3.org/2000/svg" width="25.004" height="22.639" viewBox="0 0 25.004 22.639"><defs><style>.a{fill:#f7a739;}</style></defs><g transform="translate(-1521 -54)"><g transform="translate(1521 29.821)"><g transform="translate(0 42.025)"><path class="a" d="M.919,389.655a.919.919,0,0,0-.919.919v2.955a.919.919,0,0,0,.919.919H11.5v-4.793Z" transform="translate(0 -389.655)"/></g><g transform="translate(13.522 42.025)"><path class="a" d="M287.5,389.655H276.937v4.793H287.5a.919.919,0,0,0,.919-.919v-2.955A.919.919,0,0,0,287.5,389.655Z" transform="translate(-276.937 -389.655)"/></g><g transform="translate(13.522 35.205)"><path class="a" d="M287.5,249.99H276.937v4.793H287.5a.919.919,0,0,0,.919-.919V250.91a.919.919,0,0,0-.919-.92Z" transform="translate(-276.937 -249.99)"/></g><g transform="translate(0 35.205)"><path class="a" d="M.919,249.99a.919.919,0,0,0-.919.919v2.954a.919.919,0,0,0,.919.919H11.5V249.99Z" transform="translate(0 -249.99)"/></g><g transform="translate(0 24.179)"><path class="a" d="M24.081,24.179H.919A.919.919,0,0,0,0,25.1v6.986A.919.919,0,0,0,.919,33H24.081A.919.919,0,0,0,25,32.084V25.1a.919.919,0,0,0-.919-.921Z" transform="translate(0 -24.179)"/></g></g></g></svg>