<svg xmlns="http://www.w3.org/2000/svg" width="30" height="13.448" viewBox="0 0 30 13.448"><defs><style>.a{fill:#ea2d30;}</style></defs><g transform="translate(-2.5 -28.4)"><path class="a" d="M32.424,34.937l-2.4-2.366a.234.234,0,0,0-.189-.062H15.6A6.872,6.872,0,0,0,9.318,28.4,6.725,6.725,0,1,0,15.6,37.739h2.588a.288.288,0,0,0,.221-.093l1.578-1.9a.272.272,0,0,1,.41,0l1.294,1.806a.267.267,0,0,0,.442,0l1.294-1.774a.267.267,0,0,1,.442,0l1.294,1.774a.267.267,0,0,0,.442,0L26.9,35.747a.239.239,0,0,1,.41,0l1.578,1.9a.288.288,0,0,0,.221.093h.758a.453.453,0,0,0,.189-.062l2.4-2.366A.327.327,0,0,0,32.424,34.937ZM7.077,37.023a1.9,1.9,0,1,1,0-3.8,1.873,1.873,0,0,1,1.894,1.9A1.893,1.893,0,0,1,7.077,37.023Z" transform="translate(0 0)"/></g></svg>