<svg xmlns="http://www.w3.org/2000/svg" width="29" height="28.999" viewBox="0 0 29 28.999"><defs><style>.a{fill:#f7a739;}</style></defs><g transform="translate(-1346 -51)"><path class="a" d="M28.318,11.2l-2.229-.485a12.13,12.13,0,0,0-.717-1.73l1.234-1.919a.867.867,0,0,0-.116-1.081L23.017,2.511A.867.867,0,0,0,21.936,2.4l-1.92,1.233a12.13,12.13,0,0,0-1.73-.717L17.8.682A.866.866,0,0,0,16.955,0h-4.91A.866.866,0,0,0,11.2.682l-.485,2.229a12.13,12.13,0,0,0-1.73.717L7.064,2.394a.867.867,0,0,0-1.081.116L2.511,5.983A.867.867,0,0,0,2.4,7.064l1.233,1.92a12.13,12.13,0,0,0-.717,1.73L.682,11.2A.867.867,0,0,0,0,12.045v4.91a.867.867,0,0,0,.682.847l2.229.485a12.13,12.13,0,0,0,.717,1.73L2.395,21.936a.867.867,0,0,0,.116,1.081l3.472,3.472a.867.867,0,0,0,1.081.116l1.919-1.234a12.13,12.13,0,0,0,1.73.717l.485,2.229a.866.866,0,0,0,.847.682h4.91a.866.866,0,0,0,.847-.682l.485-2.229a12.13,12.13,0,0,0,1.73-.717l1.919,1.234a.866.866,0,0,0,1.081-.116l3.472-3.472a.867.867,0,0,0,.116-1.081l-1.234-1.919a12.131,12.131,0,0,0,.717-1.73l2.229-.485A.867.867,0,0,0,29,16.955v-4.91a.867.867,0,0,0-.682-.845ZM19.7,14.5a5.2,5.2,0,1,1-5.2-5.2A5.2,5.2,0,0,1,19.7,14.5Zm0,0" transform="translate(1346 51)"/></g></svg>