<svg xmlns="http://www.w3.org/2000/svg" width="60.043" height="60.043" viewBox="0 0 60.043 60.043"><defs><style>.a{fill:#fff;opacity:0.46;}</style></defs><path class="a" d="M30.021,0A30.021,30.021,0,1,0,60.043,30.021,30.025,30.025,0,0,0,30.021,0ZM43.729,23.407q.02.443.02.891c0,9.105-6.931,19.605-19.606,19.606h0a19.5,19.5,0,0,1-10.562-3.1,14.015,14.015,0,0,0,1.644.1,13.826,13.826,0,0,0,8.558-2.95,6.9,6.9,0,0,1-6.438-4.786,6.868,6.868,0,0,0,3.112-.118A6.892,6.892,0,0,1,14.929,26.3c0-.031,0-.059,0-.088a6.843,6.843,0,0,0,3.121.862,6.9,6.9,0,0,1-2.133-9.2,19.564,19.564,0,0,0,14.2,7.2,6.894,6.894,0,0,1,11.742-6.284,13.821,13.821,0,0,0,4.376-1.672,6.918,6.918,0,0,1-3.03,3.811,13.743,13.743,0,0,0,3.957-1.085A14,14,0,0,1,43.729,23.407Zm0,0"/></svg>